<?xml version="1.0" encoding="UTF-8" standalone="no"?>
<svg
   xmlns:dc="http://purl.org/dc/elements/1.1/"
   xmlns:cc="http://creativecommons.org/ns#"
   xmlns:rdf="http://www.w3.org/1999/02/22-rdf-syntax-ns#"
   xmlns:svg="http://www.w3.org/2000/svg"
   xmlns="http://www.w3.org/2000/svg"
   xmlns:sodipodi="http://sodipodi.sourceforge.net/DTD/sodipodi-0.dtd"
   xmlns:inkscape="http://www.inkscape.org/namespaces/inkscape"
   version="1.1"
   id="Layer_1"
   x="0px"
   y="0px"
   viewBox="0 0 1122.2765 1597.668"
   enable-background="new 0 0 1234.235 1670.7"
   xml:space="preserve"
   sodipodi:docname="alarm.svg"
   width="1122.2765"
   height="1597.668"
   inkscape:version="1.0.1 (0767f8302a, 2020-10-17)"><metadata
   id="metadata11"><rdf:RDF><cc:Work
       rdf:about=""><dc:format>image/svg+xml</dc:format><dc:type
         rdf:resource="http://purl.org/dc/dcmitype/StillImage" /><dc:title></dc:title></cc:Work></rdf:RDF></metadata><defs
   id="defs9" /><sodipodi:namedview
   pagecolor="#ffffff"
   bordercolor="#666666"
   borderopacity="1"
   objecttolerance="10"
   gridtolerance="10"
   guidetolerance="10"
   inkscape:pageopacity="0"
   inkscape:pageshadow="2"
   inkscape:window-width="1920"
   inkscape:window-height="1080"
   id="namedview7"
   showgrid="false"
   fit-margin-top="0"
   fit-margin-left="0"
   fit-margin-right="0"
   fit-margin-bottom="0"
   inkscape:zoom="0.5321123"
   inkscape:cx="458.13397"
   inkscape:cy="835.29554"
   inkscape:window-x="0"
   inkscape:window-y="0"
   inkscape:window-maximized="1"
   inkscape:current-layer="Layer_1" />

<path
   style="fill:none;fill-opacity:0.553051;stroke-width:1.8793"
   d="m 134.6402,1557.7041 c -5.52023,-2.0652 -10.97208,-11.7054 -10.97208,-19.4015 0,-10.3682 42.81123,-86.6522 71.0411,-126.5859 23.91072,-33.8238 30.44124,-43.7967 30.44124,-46.4874 0,-1.4199 -4.01618,-5.3448 -8.92485,-8.7221 -12.57069,-8.6488 -52.62623,-47.995 -70.45992,-69.2122 C 86.16117,1216.3823 37.372294,1119.3127 20.584182,1038.2358 12.407224,998.74588 10.223718,974.69878 10.094296,922.71032 9.910894,849.03779 14.404733,820.63142 37.148806,751.69379 61.91135,676.63815 88.40095,625.47307 128.60776,575.03936 c 19.3877,-24.31912 64.20306,-68.00768 95.13322,-92.74127 15.24584,-12.19149 27.71971,-23.42883 27.71971,-24.97187 0,-4.58962 -19.03622,-34.33428 -22.72223,-35.50416 -4.63224,-1.47022 -9.01464,1.00971 -52.86144,29.91344 -53.23219,35.09058 -120.46042,74.05989 -134.91841,78.20638 -5.114202,1.46674 -6.550874,1.06027 -10.210906,-2.88897 -6.515743,-7.03061 -15.387401,-24.87939 -19.117102,-38.46147 -2.417557,-8.80378 -3.333204,-18.77641 -3.278449,-35.70675 0.0653,-20.19213 0.771365,-25.60275 5.027414,-38.5257 6.021092,-18.28229 15.828191,-35.22142 27.399294,-47.32492 9.658538,-10.10294 37.141229,-31.17783 58.177269,-44.6128 13.43024,-8.57742 13.78137,-8.99466 12.64896,-15.03094 -1.38454,-7.38023 0.14692,-8.95696 16.55415,-17.0436 6.31563,-3.11278 11.7447,-7.0789 12.06462,-8.81361 0.31991,-1.73469 -4.09891,-10.91802 -9.81962,-20.40738 -16.36393,-27.14411 -16.07371,-34.70805 1.78396,-46.49572 19.63276,-12.95938 24.69089,-10.92453 41.59381,16.73284 6.8694,11.24006 13.59634,20.43646 14.94876,20.43646 2.58852,0 29.4374,-15.56653 34.92967,-20.25163 1.76451,-1.50521 5.05472,-8.34686 7.31157,-15.20367 2.25684,-6.8568 6.91121,-18.08836 10.34304,-24.95899 3.43184,-6.87066 11.41793,-29.28134 17.7469,-49.80153 C 283.70705,61.6775 304.92104,32.52179 357.64129,6.0999345 421.30492,-25.806434 517.54515,-43.25635 600.15286,-37.87135 c 57.54122,3.750976 110.52635,15.147504 158.46431,34.0839565 28.86815,11.403497 45.48829,21.1665905 61.44801,36.0961135 22.59098,21.13276 32.47577,39.51487 53.2814,99.08388 17.13839,49.06935 33.6213,90.39691 37.94152,95.13072 4.06771,4.45714 31.81242,19.63809 35.89058,19.63809 1.51196,0 6.06285,-6.11933 10.11315,-13.59852 8.4954,-15.68748 20.4438,-28.63395 27.708,-30.02259 5.9319,-1.13397 20.06577,4.95493 28.98787,12.48806 9.4214,7.95477 7.4827,18.07714 -7.812,40.78844 -7.48017,11.1075 -8.72747,19.96926 -3.4638,24.60941 1.8088,1.59457 8.5743,5.5434 15.0344,8.7752 6.4601,3.23178 11.7456,6.31641 11.7456,6.8547 0,0.53828 -1.3034,2.96792 -2.8964,5.39918 -3.7244,5.68408 -3.3164,6.09613 25.1257,25.37894 38.0065,25.7672 51.8479,39.75693 64.2839,64.97313 17.2135,34.90342 19.2126,70.13048 6.0789,107.12024 -2.569,7.23532 -6.3399,15.9036 -8.3798,19.26285 -7.3345,12.07855 -16.9803,8.40505 -86.0916,-32.78734 -78.27361,-46.65342 -116.31877,-68.18316 -118.80221,-67.23017 -2.53714,0.97357 -22.14544,34.83517 -22.14544,38.24294 0,1.07733 6.55407,6.78658 14.5646,12.68725 145.40545,107.10765 227.86535,268.97021 227.86535,447.28221 0,170.16366 -75.0785,331.06426 -202.98202,435.01036 -7.5537,6.1388 -8.15051,7.208 -6.29389,11.2758 1.12812,2.4716 17.68245,24.3675 36.78734,48.6575 38.9321,49.4982 72.05297,97.9522 73.98117,108.2303 0.9713,5.1774 0.3995,7.9068 -2.4607,11.7441 -7.8619,10.5483 -24.4172,15.5945 -31.60097,9.6325 -5.6953,-4.7267 -39.7803,-46.4387 -80.3074,-98.2774 -21.67997,-27.7311 -40.62436,-50.883 -42.09863,-51.4487 -1.47428,-0.5658 -4.54028,0.627 -6.81332,2.6507 -7.27694,6.4784 -57.90593,33.897 -80.24456,43.4572 -42.47156,18.1765 -95.98297,33.8767 -142.49569,41.8082 -21.53382,3.6721 -28.24617,3.9594 -69.8655,2.9907 -25.3236,-0.5894 -55.7683,-2.3844 -67.65489,-3.989 -69.90184,-9.4358 -143.31648,-32.1863 -193.0245,-59.8163 -29.87187,-16.6042 -40.14645,-22.0167 -41.79416,-22.0167 -0.8545,0 -5.02299,5.2855 -9.26331,11.7456 -4.24033,6.4601 -11.73456,17.3069 -16.65382,24.104 -4.91926,6.797 -16.51144,23.2879 -25.76037,36.6464 -31.49603,45.4904 -58.67565,80.9173 -65.1359,84.9004 -8.29163,5.1123 -14.58534,6.3281 -20.77358,4.0131 z M 319.87956,421.99672 c 32.75327,-16.60435 67.58581,-30.59659 96.02011,-38.57124 43.77303,-12.27656 104.9161,-22.62661 133.66697,-22.62661 h 10.17443 l -0.50721,-39.93518 -0.5072,-39.93518 -30.58915,-0.11759 c -38.0046,-0.14611 -37.06574,0.44609 -37.06574,-23.37978 0,-23.85489 -0.80004,-23.33609 37.14877,-24.0904 16.746,-0.33287 31.44231,-1.43104 32.6585,-2.44039 1.45039,-1.20371 2.63031,-1.15713 3.42913,0.13531 0.77185,1.24889 12.85995,1.97056 33.00685,1.97056 h 31.78896 l 2.96571,5.73503 c 5.34186,10.33004 3.33114,34.48285 -3.2231,38.71585 -1.35576,0.8757 -15.57318,2.01495 -31.59423,2.53176 l -29.12919,0.93965 v 39.46535 39.46536 l 9.39651,0.41643 c 94.11619,4.17094 178.4588,25.76255 252.28342,64.58424 11.62104,6.1111 22.19212,11.09261 23.49128,11.07003 2.28852,-0.0398 22.09476,-33.39424 22.09476,-37.20846 0,-1.04079 -5.70839,-5.07445 -12.6853,-8.96369 -29.65973,-16.53359 -77.61468,-46.47836 -117.92623,-73.63729 -65.00872,-43.79803 -64.50114,-43.33311 -57.96848,-53.09701 15.33173,-22.91527 30.24824,-36.27687 53.66117,-48.06742 21.0284,-10.58974 38.73797,-14.70833 63.50534,-14.76901 19.34802,-0.0474 23.56628,0.58401 40.26789,6.02749 10.26077,3.34423 18.93625,5.80013 19.27884,5.45751 0.3426,-0.3426 -1.97159,-6.88789 -5.14267,-14.54509 -3.17108,-7.6572 -11.72134,-31.25874 -19.00059,-52.44787 C 818.5227,83.96822 811.10584,71.23472 786.38736,53.70119 751.87106,29.21778 701.17309,12.60398 630.14015,2.4987365 c -33.91928,-4.825403 -95.13162,-4.345566 -130.34011,1.02172 -49.55142,7.5537685 -94.63995,20.9494885 -131.5615,39.0866735 -41.32744,20.30152 -55.29975,41.54334 -79.0043,120.10855 -5.27121,17.47069 -11.79625,37.05714 -14.50006,43.52542 -3.96893,9.49482 -4.47099,12.29673 -2.60599,14.5439 2.78163,3.35168 5.64274,2.0012 5.64274,-2.66348 0,-2.4433 4.02066,-5.07485 14.42882,-9.44381 33.68879,-14.14134 66.62604,-12.01953 105.84654,6.81854 15.20576,7.30352 20.22229,10.97954 33.82745,24.78826 8.78574,8.91718 17.6369,19.36687 19.66925,23.22151 l 3.69516,7.00847 -6.51412,6.82072 c -8.3356,8.72793 -50.54634,36.63202 -118.33263,78.22568 -29.45807,18.07547 -56.3086,34.44204 -59.66785,36.37015 -3.35926,1.9281 -6.10774,4.99981 -6.10774,6.82596 0,2.81362 6.70902,15.05509 18.07792,32.98554 1.47457,2.32563 4.24246,4.22843 6.15086,4.22843 1.90839,0 15.87413,-6.28841 31.03497,-13.97425 z"
   id="path838" /><path
   style="fill:none;fill-opacity:0.553051;stroke-width:1.8793"
   d="m 134.6402,1557.7041 c -5.52023,-2.0652 -10.97208,-11.7054 -10.97208,-19.4015 0,-10.3682 42.81123,-86.6522 71.0411,-126.5859 23.91072,-33.8238 30.44124,-43.7967 30.44124,-46.4874 0,-1.4199 -4.01618,-5.3448 -8.92485,-8.7221 -12.57069,-8.6488 -52.62623,-47.995 -70.45992,-69.2122 C 86.16117,1216.3823 37.372294,1119.3127 20.584182,1038.2358 12.407224,998.74588 10.223718,974.69878 10.094296,922.71032 9.910894,849.03779 14.404733,820.63142 37.148806,751.69379 61.91135,676.63815 88.40095,625.47307 128.60776,575.03936 c 19.3877,-24.31912 64.20306,-68.00768 95.13322,-92.74127 15.24584,-12.19149 27.71971,-23.42883 27.71971,-24.97187 0,-4.58962 -19.03622,-34.33428 -22.72223,-35.50416 -4.63224,-1.47022 -9.01464,1.00971 -52.86144,29.91344 -53.23219,35.09058 -120.46042,74.05989 -134.91841,78.20638 -5.114202,1.46674 -6.550874,1.06027 -10.210906,-2.88897 -6.515743,-7.03061 -15.387401,-24.87939 -19.117102,-38.46147 -2.417557,-8.80378 -3.333204,-18.77641 -3.278449,-35.70675 0.0653,-20.19213 0.771365,-25.60275 5.027414,-38.5257 6.021092,-18.28229 15.828191,-35.22142 27.399294,-47.32492 9.658538,-10.10294 37.141229,-31.17783 58.177269,-44.6128 13.43024,-8.57742 13.78137,-8.99466 12.64896,-15.03094 -1.38454,-7.38023 0.14692,-8.95696 16.55415,-17.0436 6.31563,-3.11278 11.7447,-7.0789 12.06462,-8.81361 0.31991,-1.73469 -4.09891,-10.91802 -9.81962,-20.40738 -16.36393,-27.14411 -16.07371,-34.70805 1.78396,-46.49572 19.63276,-12.95938 24.69089,-10.92453 41.59381,16.73284 6.8694,11.24006 13.59634,20.43646 14.94876,20.43646 2.58852,0 29.4374,-15.56653 34.92967,-20.25163 1.76451,-1.50521 5.05472,-8.34686 7.31157,-15.20367 2.25684,-6.8568 6.91121,-18.08836 10.34304,-24.95899 3.43184,-6.87066 11.41793,-29.28134 17.7469,-49.80153 C 283.70705,61.6775 304.92104,32.52179 357.64129,6.0999345 421.30492,-25.806434 517.54515,-43.25635 600.15286,-37.87135 c 57.54122,3.750976 110.52635,15.147504 158.46431,34.0839565 28.86815,11.403497 45.48829,21.1665905 61.44801,36.0961135 22.59098,21.13276 32.47577,39.51487 53.2814,99.08388 17.13839,49.06935 33.6213,90.39691 37.94152,95.13072 4.06771,4.45714 31.81242,19.63809 35.89058,19.63809 1.51196,0 6.06285,-6.11933 10.11315,-13.59852 8.4954,-15.68748 20.4438,-28.63395 27.708,-30.02259 5.9319,-1.13397 20.06577,4.95493 28.98787,12.48806 9.4214,7.95477 7.4827,18.07714 -7.812,40.78844 -7.48017,11.1075 -8.72747,19.96926 -3.4638,24.60941 1.8088,1.59457 8.5743,5.5434 15.0344,8.7752 6.4601,3.23178 11.7456,6.31641 11.7456,6.8547 0,0.53828 -1.3034,2.96792 -2.8964,5.39918 -3.7244,5.68408 -3.3164,6.09613 25.1257,25.37894 38.0065,25.7672 51.8479,39.75693 64.2839,64.97313 17.2135,34.90342 19.2126,70.13048 6.0789,107.12024 -2.569,7.23532 -6.3399,15.9036 -8.3798,19.26285 -7.3345,12.07855 -16.9803,8.40505 -86.0916,-32.78734 -78.27361,-46.65342 -116.31877,-68.18316 -118.80221,-67.23017 -2.53714,0.97357 -22.14544,34.83517 -22.14544,38.24294 0,1.07733 6.55407,6.78658 14.5646,12.68725 145.40545,107.10765 227.86535,268.97021 227.86535,447.28221 0,170.16366 -75.0785,331.06426 -202.98202,435.01036 -7.5537,6.1388 -8.15051,7.208 -6.29389,11.2758 1.12812,2.4716 17.68245,24.3675 36.78734,48.6575 38.9321,49.4982 72.05297,97.9522 73.98117,108.2303 0.9713,5.1774 0.3995,7.9068 -2.4607,11.7441 -7.8619,10.5483 -24.4172,15.5945 -31.60097,9.6325 -5.6953,-4.7267 -39.7803,-46.4387 -80.3074,-98.2774 -21.67997,-27.7311 -40.62436,-50.883 -42.09863,-51.4487 -1.47428,-0.5658 -4.54028,0.627 -6.81332,2.6507 -7.27694,6.4784 -57.90593,33.897 -80.24456,43.4572 -42.47156,18.1765 -95.98297,33.8767 -142.49569,41.8082 -21.53382,3.6721 -28.24617,3.9594 -69.8655,2.9907 -25.3236,-0.5894 -55.7683,-2.3844 -67.65489,-3.989 -69.90184,-9.4358 -143.31648,-32.1863 -193.0245,-59.8163 -29.87187,-16.6042 -40.14645,-22.0167 -41.79416,-22.0167 -0.8545,0 -5.02299,5.2855 -9.26331,11.7456 -4.24033,6.4601 -11.73456,17.3069 -16.65382,24.104 -4.91926,6.797 -16.51144,23.2879 -25.76037,36.6464 -31.49603,45.4904 -58.67565,80.9173 -65.1359,84.9004 -8.29163,5.1123 -14.58534,6.3281 -20.77358,4.0131 z M 319.87956,421.99672 c 32.75327,-16.60435 67.58581,-30.59659 96.02011,-38.57124 43.77303,-12.27656 104.9161,-22.62661 133.66697,-22.62661 h 10.17443 l -0.50721,-39.93518 -0.5072,-39.93518 -30.58915,-0.11759 c -38.0046,-0.14611 -37.06574,0.44609 -37.06574,-23.37978 0,-23.85489 -0.80004,-23.33609 37.14877,-24.0904 16.746,-0.33287 31.44231,-1.43104 32.6585,-2.44039 1.45039,-1.20371 2.63031,-1.15713 3.42913,0.13531 0.77185,1.24889 12.85995,1.97056 33.00685,1.97056 h 31.78896 l 2.96571,5.73503 c 5.34186,10.33004 3.33114,34.48285 -3.2231,38.71585 -1.35576,0.8757 -15.57318,2.01495 -31.59423,2.53176 l -29.12919,0.93965 v 39.46535 39.46536 l 9.39651,0.41643 c 94.11619,4.17094 178.4588,25.76255 252.28342,64.58424 11.62104,6.1111 22.19212,11.09261 23.49128,11.07003 2.28852,-0.0398 22.09476,-33.39424 22.09476,-37.20846 0,-1.04079 -5.70839,-5.07445 -12.6853,-8.96369 -29.65973,-16.53359 -77.61468,-46.47836 -117.92623,-73.63729 -65.00872,-43.79803 -64.50114,-43.33311 -57.96848,-53.09701 15.33173,-22.91527 30.24824,-36.27687 53.66117,-48.06742 21.0284,-10.58974 38.73797,-14.70833 63.50534,-14.76901 19.34802,-0.0474 23.56628,0.58401 40.26789,6.02749 10.26077,3.34423 18.93625,5.80013 19.27884,5.45751 0.3426,-0.3426 -1.97159,-6.88789 -5.14267,-14.54509 -3.17108,-7.6572 -11.72134,-31.25874 -19.00059,-52.44787 C 818.5227,83.96822 811.10584,71.23472 786.38736,53.70119 751.87106,29.21778 701.17309,12.60398 630.14015,2.4987365 c -33.91928,-4.825403 -95.13162,-4.345566 -130.34011,1.02172 -49.55142,7.5537685 -94.63995,20.9494885 -131.5615,39.0866735 -41.32744,20.30152 -55.29975,41.54334 -79.0043,120.10855 -5.27121,17.47069 -11.79625,37.05714 -14.50006,43.52542 -3.96893,9.49482 -4.47099,12.29673 -2.60599,14.5439 2.78163,3.35168 5.64274,2.0012 5.64274,-2.66348 0,-2.4433 4.02066,-5.07485 14.42882,-9.44381 33.68879,-14.14134 66.62604,-12.01953 105.84654,6.81854 15.20576,7.30352 20.22229,10.97954 33.82745,24.78826 8.78574,8.91718 17.6369,19.36687 19.66925,23.22151 l 3.69516,7.00847 -6.51412,6.82072 c -8.3356,8.72793 -50.54634,36.63202 -118.33263,78.22568 -29.45807,18.07547 -56.3086,34.44204 -59.66785,36.37015 -3.35926,1.9281 -6.10774,4.99981 -6.10774,6.82596 0,2.81362 6.70902,15.05509 18.07792,32.98554 1.47457,2.32563 4.24246,4.22843 6.15086,4.22843 1.90839,0 15.87413,-6.28841 31.03497,-13.97425 z"
   id="path840" /><path
   style="fill:#4C4C4C;fill-opacity:0.98999995;stroke-width:1.8793"
   d="m 126.29036,1596.5422 c -5.52023,-2.0652 -10.97208,-11.7054 -10.97208,-19.4015 0,-10.3682 42.8112,-86.6522 71.0411,-126.5859 23.9107,-33.8238 30.4412,-43.7967 30.4412,-46.4874 0,-1.4199 -4.0161,-5.3448 -8.9248,-8.7221 -12.5707,-8.6488 -52.6262,-47.995 -70.45993,-69.2122 C 77.81133,1255.2204 29.022459,1158.1508 12.234339,1077.0739 4.057385,1037.584 1.873875,1013.5369 1.744455,961.54838 1.561055,887.87577 6.054885,859.4694 28.798969,790.53177 53.56151,715.47613 80.05111,664.31105 120.25792,613.87734 c 19.3877,-24.31912 64.20306,-68.00768 95.13326,-92.74127 15.2458,-12.19149 27.7197,-23.42883 27.7197,-24.97187 0,-4.58962 -19.0362,-34.33428 -22.7223,-35.50416 -4.6322,-1.47022 -9.0146,1.00971 -52.8614,29.91344 -53.23219,35.09058 -120.460421,74.05989 -134.918411,78.20638 -5.1142,1.46674 -6.55087,1.06027 -10.2109,-2.88897 -6.51575,-7.03061 -15.38741,-24.87939 -19.117114,-38.46147 -2.41755005,-8.80378 -3.33320005,-18.77641 -3.27845005,-35.70675 0.0653,-20.19213 0.77137,-25.60275 5.02742005,-38.5257 6.021094,-18.28229 15.828194,-35.22142 27.399294,-47.32492 9.65854,-10.10294 37.141231,-31.17783 58.177271,-44.6128 13.43024,-8.57742 13.78137,-8.99466 12.64896,-15.03094 -1.38454,-7.38023 0.14692,-8.95696 16.55415,-17.0436 6.31563,-3.11278 11.7447,-7.0789 12.06462,-8.81361 0.31991,-1.73469 -4.09891,-10.91802 -9.81962,-20.40738 -16.36393,-27.14411 -16.07371,-34.70805 1.78396,-46.49572 19.63276,-12.95938 24.69092,-10.92453 41.59382,16.73284 6.8694,11.24006 13.5963,20.43646 14.9488,20.43646 2.5885,0 29.4374,-15.56653 34.9296,-20.25163 1.7645,-1.50521 5.0547,-8.34686 7.3116,-15.20367 2.2568,-6.8568 6.9112,-18.08836 10.343,-24.95899 3.4319,-6.87066 11.418,-29.28134 17.7469,-49.80153 24.6451,-79.906 45.8591,-109.06171 98.5794,-135.48356 63.6636,-31.906372 159.9038,-49.3562885 242.5115,-43.97128845 57.5413,3.75097595 110.5264,15.14750445 158.4644,34.08395845 28.8681,11.40349 45.4882,21.16659 61.448,36.09611 22.5909,21.13276 32.4757,39.51487 53.2814,99.08388 17.1384,49.06935 33.6213,90.39691 37.9415,95.13072 4.0677,4.45714 31.8124,19.63809 35.8906,19.63809 1.5119,0 6.0628,-6.11933 10.1131,-13.59852 8.49535,-15.68748 20.44375,-28.63395 27.70795,-30.02259 5.9319,-1.13397 20.0658,4.95493 28.98787,12.48806 9.4214,7.95477 7.4827,18.07714 -7.81197,40.78844 -7.4802,11.1075 -8.7275,19.96926 -3.4638,24.60941 1.8088,1.59457 8.57427,5.5434 15.03437,8.7752 6.4601,3.23178 11.7456,6.31641 11.7456,6.8547 0,0.53828 -1.3034,2.96792 -2.8964,5.39918 -3.7244,5.68408 -3.3164,6.09613 25.1257,25.37894 38.0065,25.7672 51.8479,39.75693 64.2839,64.97313 17.2135,34.90342 19.2126,70.13048 6.0789,107.12024 -2.569,7.23532 -6.3399,15.9036 -8.3798,19.26285 -7.3345,12.07855 -16.9803,8.40505 -86.0916,-32.78734 -78.27352,-46.65342 -116.31872,-68.18316 -118.80212,-67.23017 -2.5372,0.97357 -22.1455,34.83517 -22.1455,38.24294 0,1.07733 6.5541,6.78658 14.5646,12.68725 145.40542,107.10765 227.86532,268.97021 227.86532,447.28227 0,170.16372 -75.0785,331.06432 -202.98192,435.01042 -7.5537,6.1388 -8.1505,7.208 -6.2939,11.2758 1.1281,2.4716 17.6824,24.3675 36.7873,48.6575 38.93205,49.4982 72.05292,97.9522 73.98112,108.2303 0.9713,5.1774 0.3995,7.9068 -2.4607,11.7441 -7.8619,10.5483 -24.41717,15.5945 -31.60097,9.6325 -5.6953,-4.7267 -39.78025,-46.4387 -80.30735,-98.2774 -21.68,-27.7311 -40.6243,-50.883 -42.0986,-51.4487 -1.4743,-0.5658 -4.5403,0.627 -6.8133,2.6507 -7.277,6.4784 -57.906,33.897 -80.2446,43.4572 -42.4716,18.1765 -95.983,33.8767 -142.4957,41.8082 -21.5338,3.6721 -28.2462,3.9594 -69.8655,2.9907 -25.3236,-0.5894 -55.7683,-2.3844 -67.6549,-3.989 -69.9018,-9.4358 -143.3165,-32.1863 -193.0245,-59.8163 -29.8718,-16.6042 -40.1464,-22.0167 -41.7941,-22.0167 -0.8545,0 -5.023,5.2855 -9.2633,11.7456 -4.2404,6.4601 -11.7346,17.3069 -16.6539,24.104 -4.9192,6.797 -16.5114,23.2879 -25.7603,36.6464 -31.4961,45.4904 -58.6757,80.9173 -65.1359,84.9004 -8.29167,5.1123 -14.58538,6.3281 -20.77362,4.0131 z M 311.52968,460.8347 c 32.7533,-16.60435 67.5859,-30.59659 96.0202,-38.57124 43.773,-12.27656 104.9161,-22.62661 133.6669,-22.62661 h 10.1745 l -0.5073,-39.93518 -0.5072,-39.93518 -30.5891,-0.11759 c -38.0046,-0.14611 -37.0657,0.44609 -37.0657,-23.37978 0,-23.85489 -0.8001,-23.33609 37.1487,-24.0904 16.746,-0.33287 31.4423,-1.43104 32.6585,-2.44039 1.4504,-1.20371 2.6303,-1.15713 3.4292,0.13531 0.7718,1.24889 12.8599,1.97056 33.0068,1.97056 h 31.789 l 2.9657,5.73503 c 5.3418,10.33004 3.3311,34.48285 -3.2231,38.71585 -1.3558,0.8757 -15.5732,2.01495 -31.5943,2.53176 l -29.1291,0.93965 v 39.46535 39.46536 l 9.3965,0.41643 c 94.1162,4.17094 178.4588,25.76255 252.2834,64.58424 11.621,6.1111 22.1921,11.09261 23.4913,11.07003 2.2885,-0.0398 22.0947,-33.39424 22.0947,-37.20846 0,-1.04079 -5.7084,-5.07445 -12.6853,-8.96369 -29.6597,-16.53359 -77.6147,-46.47836 -117.9262,-73.63729 -65.0087,-43.79803 -64.5011,-43.33311 -57.9685,-53.09701 15.3317,-22.91527 30.2483,-36.27687 53.6612,-48.06742 21.0284,-10.58974 38.738,-14.70833 63.5053,-14.76901 19.348,-0.0474 23.5663,0.58401 40.2679,6.02749 10.2608,3.34423 18.9363,5.80013 19.2789,5.45751 0.3426,-0.3426 -1.9716,-6.88789 -5.1427,-14.54509 -3.1711,-7.6572 -11.7214,-31.25874 -19.0006,-52.44787 -20.8564,-60.71086 -28.2733,-73.44436 -52.9918,-90.97789 -34.5163,-24.48341 -85.2142,-41.09721 -156.2472,-51.20245 -33.9192,-4.82541 -95.1316,-4.34557 -130.3401,1.02172 -49.5514,7.55377 -94.6399,20.94949 -131.5615,39.08667 -41.3274,20.30152 -55.2997,41.54334 -79.0043,120.10855 -5.2712,17.47069 -11.7962,37.05714 -14.5,43.52542 -3.969,9.49482 -4.471,12.29673 -2.606,14.5439 2.7816,3.35168 5.6427,2.0012 5.6427,-2.66348 0,-2.4433 4.0207,-5.07485 14.4288,-9.44381 33.6888,-14.14134 66.6261,-12.01953 105.8466,6.81854 15.2057,7.30352 20.2223,10.97954 33.8274,24.78826 8.7858,8.91718 17.6369,19.36687 19.6693,23.22151 l 3.6951,7.00847 -6.5141,6.82072 c -8.3356,8.72793 -50.5463,36.63202 -118.3326,78.22568 -29.4581,18.07547 -56.3086,34.44204 -59.6679,36.37015 -3.3592,1.9281 -6.1077,4.99981 -6.1077,6.82596 0,2.81362 6.709,15.05509 18.0779,32.98554 1.4746,2.32563 4.2425,4.22843 6.1509,4.22843 1.9084,0 15.8741,-6.28841 31.0349,-13.97425 z"
   id="path844" /><path
   style="fill:#4C4C4C;fill-opacity:0;stroke-width:1.8793"
   d="m 125.06559,1593.6578 c -2.58352,-2.0322 -5.76647,-6.2761 -7.07321,-9.4308 -3.00904,-7.2645 -0.32298,-14.864 15.98307,-45.22 17.20674,-32.0327 32.5062,-56.9085 58.73601,-95.5002 12.90064,-18.9806 23.83963,-35.9783 24.30888,-37.7727 0.59923,-2.2914 -3.52498,-6.9414 -13.85657,-15.6231 -17.27754,-14.5185 -53.80792,-51.4008 -68.8637,-69.5271 C 76.709477,1251.2481 27.673193,1150.6964 12.007834,1069.8167 4.8857865,1033.0459 3.3427539,1013.5382 3.3427539,960.26916 c 0,-71.88265 3.9405291,-98.98048 22.9559721,-157.86142 26.319053,-81.4964 54.595232,-137.39186 94.594094,-186.9906 16.98824,-21.0655 64.01039,-67.34761 93.87147,-92.39414 12.4034,-10.40358 24.16576,-20.72487 26.13858,-22.93621 4.27737,-4.79452 3.46936,-7.13308 -9.26757,-26.82239 -11.0859,-17.13702 -12.6946,-17.07889 -41.52427,1.50046 -82.20912,52.97987 -138.486293,86.22232 -156.36591,92.36403 -5.724444,1.96638 -6.634269,1.72378 -10.93357,-2.91524 C 16.425429,557.3229 5.8341605,534.82733 3.2057338,522.5714 1.9140395,516.54843 1.3681067,502.25757 1.8436769,486.9169 2.5480719,464.19493 3.2375586,459.83421 7.9717767,448.15922 14.404179,432.29634 23.859996,416.87721 33.135228,407.12645 c 8.884745,-9.34027 32.349365,-27.62319 54.43387,-42.41325 15.251382,-10.21391 17.468942,-12.37684 17.184412,-16.76108 -0.56913,-8.76954 -0.0964,-9.57137 8.05862,-13.66717 4.39287,-2.20631 10.7704,-6.09872 14.17229,-8.64983 7.38138,-5.53534 7.19733,-6.6122 -4.65498,-27.23547 -14.86479,-25.86511 -14.57165,-32.4285 1.94487,-43.54542 19.01941,-12.80156 21.65191,-11.72297 40.70736,16.67872 7.27115,10.83747 14.27895,19.7045 15.57289,19.7045 2.73528,0 31.19238,-15.93646 34.70991,-19.43815 4.20148,-4.18256 20.8661,-46.02233 36.42045,-91.4407 21.7277,-63.4444 32.71523,-84.081612 56.72323,-106.539911 C 358.16086,27.277452 476.48237,-3.0665586 587.80584,2.1660591 666.53281,5.86652 754.84611,30.62411 797.2462,60.880193 c 30.40852,21.699068 42.86384,42.662097 69.31399,116.659457 14.49083,40.53979 30.16873,80.10869 34.14481,86.17698 3.22009,4.91447 31.9955,21.88265 37.10987,21.88282 2.04336,6e-5 7.04885,-5.83856 13.2918,-15.50415 5.50776,-8.52733 13.25511,-18.34209 17.21636,-21.81056 6.05515,-5.30191 8.22612,-6.14016 13.63083,-5.26309 8.42317,1.36688 22.28104,9.57744 26.16194,15.50057 4.0075,6.11621 1.3684,15.54508 -8.90318,31.80898 -8.22997,13.03127 -10.56739,21.21732 -7.62707,26.71137 1.09283,2.04198 7.86755,6.80283 15.05495,10.57968 12.9651,6.813 13.0517,6.91007 11.002,12.34033 -2.7276,7.22618 -2.3805,7.58725 26.3949,27.45451 32.3004,22.301 51.6685,41.95204 61.9834,62.88875 11.0128,22.35352 14.4192,36.49001 14.491,60.13768 0.068,22.51036 -3.8748,40.35366 -13.0182,58.90939 -4.9049,9.95386 -6.4837,11.63935 -11.3364,12.10216 -7.8529,0.74896 -27.1366,-9.0006 -81.7497,-41.33152 -83.1125,-49.20256 -108.60841,-63.50747 -113.19056,-63.50747 -4.25685,0 -24.72743,35.46933 -22.97929,39.81612 0.54594,1.3575 6.62554,6.69661 13.51021,11.8647 146.86694,110.24791 227.88774,269.26703 227.88774,447.274 0,127.7856 -43.7127,253.6439 -122.52443,352.7747 -16.00758,20.1346 -53.20584,58.4154 -75.54753,77.746 -12.418,10.7444 -12.86813,11.4239 -10.51239,15.8685 1.35363,2.5539 17.05529,23.7071 34.89262,47.0071 38.49561,50.285 61.81113,83.446 70.54773,100.3382 6.0377,11.6739 6.222,12.5917 3.5055,17.4569 -4.2089,7.5381 -14.3558,13.6767 -22.60706,13.6767 -9.03234,0 -10.07269,-1.1452 -75.97194,-83.629 -28.07696,-35.1429 -52.28943,-64.9089 -53.80548,-66.1465 -3.08345,-2.5172 -1.64711,-3.149 -25.39872,11.1721 -41.24088,24.8663 -94.00363,47.2375 -143.51857,60.8511 -44.89868,12.3445 -66.15965,15.9839 -99.72038,17.0697 -78.74638,2.5478 -151.0433,-8.4678 -225.34908,-34.3358 -31.17555,-10.8531 -45.82822,-17.4793 -81.28957,-36.7606 -15.24008,-8.2865 -28.53823,-14.554 -29.55143,-13.9278 -1.01321,0.6263 -8.39071,10.6215 -16.39446,22.2117 -29.04792,42.0643 -70.99921,100.3823 -83.9533,116.7065 -9.29576,11.7142 -15.52855,17.7357 -20.86863,20.1612 -9.61004,4.3651 -10.77179,4.3543 -16.50289,-0.1539 z M 316.75086,459.57184 c 49.88627,-23.70905 73.33407,-32.33281 115.07287,-42.32213 37.91491,-9.07416 89.57267,-16.95968 111.34868,-16.9973 l 8.92668,-0.0154 v -40.16094 -40.16094 l -30.8776,-0.84497 c -21.52553,-0.58907 -31.77103,-1.58647 -33.82744,-3.29314 -2.29506,-1.90473 -2.94985,-6.34537 -2.94985,-20.00529 0,-15.5065 0.42967,-17.78709 3.67862,-19.52588 4.87439,-2.60869 58.70372,-4.87972 99.20923,-4.18558 l 32.414,0.55547 3.01886,5.83783 c 4.02077,7.77533 2.99068,30.13935 -1.59966,34.72968 -2.53225,2.53224 -8.71792,3.4466 -30.9474,4.57459 -15.28042,0.77538 -28.41686,1.46815 -29.19207,1.53947 -0.77521,0.0714 -1.40948,18.31194 -1.40948,40.5347 v 40.405 l 9.86634,0.006 c 29.97422,0.0195 87.80596,8.17859 127.28971,17.95844 43.90836,10.87581 72.90493,21.56906 120.95011,44.6036 l 27.89159,13.37219 3.50159,-4.61271 c 7.40504,-9.7548 19.07056,-31.96122 18.10785,-34.47 -0.55514,-1.4467 -17.51621,-12.4406 -37.69125,-24.43087 C 785.8359,386.69401 688.75233,322.21997 680.97236,314.00338 l -5.49685,-5.80535 7.1325,-10.35609 c 15.29218,-22.20356 39.49277,-40.28427 67.44651,-50.39054 13.16087,-4.75813 18.86117,-5.68206 40.04198,-6.49014 23.62971,-0.90152 25.56816,-0.68515 44.87209,5.00848 11.09653,3.27289 20.52197,5.60426 20.94539,5.18082 0.42345,-0.42345 -0.85439,-4.89684 -2.83961,-9.94091 -1.98523,-5.04326 -10.56726,-28.62101 -19.07116,-52.39418 C 809.67771,120.81213 804.1348,110.77264 781.77916,94.22572 749.22943,70.133443 702.73104,53.772007 632.9091,41.842667 604.34229,36.961921 516.85569,37.018486 487.26316,41.936837 437.86003,50.147752 376.32468,69.865563 347.67159,86.666246 c -24.1658,14.169574 -41.0469,37.351174 -54.54251,74.899334 -12.42888,34.58026 -30.59756,92.87124 -30.06521,96.4589 0.78823,5.31208 5.29108,6.25227 6.56748,1.37129 2.41517,-9.23564 32.78079,-19.48748 57.89109,-19.54482 33.57562,-0.0767 69.10818,14.48429 93.01976,38.11876 7.90566,7.81406 16.77216,17.83437 19.70329,22.26735 l 5.32932,8.05995 -6.40571,6.71227 c -8.46286,8.86786 -57.37843,41.25182 -125.74143,83.24556 -30.49168,18.73032 -56.18179,35.67105 -57.08913,37.6461 -1.20268,2.61789 -0.24828,6.03848 3.52192,12.62288 11.87019,20.73042 16.44195,26.88528 19.97007,26.88528 1.9784,0 18.59255,-7.12676 36.92033,-15.83726 z"
   id="path880" /><path
   style="fill:#4c4c4c;fill-opacity:0;stroke-width:1.8793"
   d="m 125.06559,1593.6578 c -2.58352,-2.0322 -5.76647,-6.2761 -7.07321,-9.4308 -3.00904,-7.2645 -0.32298,-14.864 15.98307,-45.22 17.20674,-32.0327 32.5062,-56.9085 58.73601,-95.5002 12.90064,-18.9806 23.83963,-35.9783 24.30888,-37.7727 0.59923,-2.2914 -3.52498,-6.9414 -13.85657,-15.6231 -17.27754,-14.5185 -53.80792,-51.4008 -68.8637,-69.5271 C 76.709477,1251.2481 27.673193,1150.6964 12.007834,1069.8167 4.8857865,1033.0459 3.3427539,1013.5382 3.3427539,960.26916 c 0,-71.88265 3.9405291,-98.98048 22.9559721,-157.86142 26.319053,-81.4964 54.595232,-137.39186 94.594094,-186.9906 16.98824,-21.0655 64.01039,-67.34761 93.87147,-92.39414 12.4034,-10.40358 24.16576,-20.72487 26.13858,-22.93621 4.27737,-4.79452 3.46936,-7.13308 -9.26757,-26.82239 -11.0859,-17.13702 -12.6946,-17.07889 -41.52427,1.50046 -82.20912,52.97987 -138.486293,86.22232 -156.36591,92.36403 -5.724444,1.96638 -6.634269,1.72378 -10.93357,-2.91524 C 16.425429,557.3229 5.8341605,534.82733 3.2057338,522.5714 1.9140395,516.54843 1.3681067,502.25757 1.8436769,486.9169 2.5480719,464.19493 3.2375586,459.83421 7.9717767,448.15922 14.404179,432.29634 23.859996,416.87721 33.135228,407.12645 c 8.884745,-9.34027 32.349365,-27.62319 54.43387,-42.41325 15.251382,-10.21391 17.468942,-12.37684 17.184412,-16.76108 -0.56913,-8.76954 -0.0964,-9.57137 8.05862,-13.66717 4.39287,-2.20631 10.7704,-6.09872 14.17229,-8.64983 7.38138,-5.53534 7.19733,-6.6122 -4.65498,-27.23547 -14.86479,-25.86511 -14.57165,-32.4285 1.94487,-43.54542 19.01941,-12.80156 21.65191,-11.72297 40.70736,16.67872 7.27115,10.83747 14.27895,19.7045 15.57289,19.7045 2.73528,0 31.19238,-15.93646 34.70991,-19.43815 4.20148,-4.18256 20.8661,-46.02233 36.42045,-91.4407 21.7277,-63.4444 32.71523,-84.081612 56.72323,-106.539911 C 358.16086,27.277452 476.48237,-3.0665586 587.80584,2.1660591 666.53281,5.86652 754.84611,30.62411 797.2462,60.880193 c 30.40852,21.699068 42.86384,42.662097 69.31399,116.659457 14.49083,40.53979 30.16873,80.10869 34.14481,86.17698 3.22009,4.91447 31.9955,21.88265 37.10987,21.88282 2.04336,6e-5 7.04885,-5.83856 13.2918,-15.50415 5.50776,-8.52733 13.25511,-18.34209 17.21636,-21.81056 6.05515,-5.30191 8.22612,-6.14016 13.63083,-5.26309 8.42317,1.36688 22.28104,9.57744 26.16194,15.50057 4.0075,6.11621 1.3684,15.54508 -8.90318,31.80898 -8.22997,13.03127 -10.56739,21.21732 -7.62707,26.71137 1.09283,2.04198 7.86755,6.80283 15.05495,10.57968 12.9651,6.813 13.0517,6.91007 11.002,12.34033 -2.7276,7.22618 -2.3805,7.58725 26.3949,27.45451 32.3004,22.301 51.6685,41.95204 61.9834,62.88875 11.0128,22.35352 14.4192,36.49001 14.491,60.13768 0.068,22.51036 -3.8748,40.35366 -13.0182,58.90939 -4.9049,9.95386 -6.4837,11.63935 -11.3364,12.10216 -7.8529,0.74896 -27.1366,-9.0006 -81.7497,-41.33152 -83.1125,-49.20256 -108.60841,-63.50747 -113.19056,-63.50747 -4.25685,0 -24.72743,35.46933 -22.97929,39.81612 0.54594,1.3575 6.62554,6.69661 13.51021,11.8647 146.86694,110.24791 227.88774,269.26703 227.88774,447.274 0,127.7856 -43.7127,253.6439 -122.52443,352.7747 -16.00758,20.1346 -53.20584,58.4154 -75.54753,77.746 -12.418,10.7444 -12.86813,11.4239 -10.51239,15.8685 1.35363,2.5539 17.05529,23.7071 34.89262,47.0071 38.49561,50.285 61.81113,83.446 70.54773,100.3382 6.0377,11.6739 6.222,12.5917 3.5055,17.4569 -4.2089,7.5381 -14.3558,13.6767 -22.60706,13.6767 -9.03234,0 -10.07269,-1.1452 -75.97194,-83.629 -28.07696,-35.1429 -52.28943,-64.9089 -53.80548,-66.1465 -3.08345,-2.5172 -1.64711,-3.149 -25.39872,11.1721 -41.24088,24.8663 -94.00363,47.2375 -143.51857,60.8511 -44.89868,12.3445 -66.15965,15.9839 -99.72038,17.0697 -78.74638,2.5478 -151.0433,-8.4678 -225.34908,-34.3358 -31.17555,-10.8531 -45.82822,-17.4793 -81.28957,-36.7606 -15.24008,-8.2865 -28.53823,-14.554 -29.55143,-13.9278 -1.01321,0.6263 -8.39071,10.6215 -16.39446,22.2117 -29.04792,42.0643 -70.99921,100.3823 -83.9533,116.7065 -9.29576,11.7142 -15.52855,17.7357 -20.86863,20.1612 -9.61004,4.3651 -10.77179,4.3543 -16.50289,-0.1539 z M 316.75086,459.57184 c 49.88627,-23.70905 73.33407,-32.33281 115.07287,-42.32213 37.91491,-9.07416 89.57267,-16.95968 111.34868,-16.9973 l 8.92668,-0.0154 v -40.16094 -40.16094 l -30.8776,-0.84497 c -21.52553,-0.58907 -31.77103,-1.58647 -33.82744,-3.29314 -2.29506,-1.90473 -2.94985,-6.34537 -2.94985,-20.00529 0,-15.5065 0.42967,-17.78709 3.67862,-19.52588 4.87439,-2.60869 58.70372,-4.87972 99.20923,-4.18558 l 32.414,0.55547 3.01886,5.83783 c 4.02077,7.77533 2.99068,30.13935 -1.59966,34.72968 -2.53225,2.53224 -8.71792,3.4466 -30.9474,4.57459 -15.28042,0.77538 -28.41686,1.46815 -29.19207,1.53947 -0.77521,0.0714 -1.40948,18.31194 -1.40948,40.5347 v 40.405 l 9.86634,0.006 c 29.97422,0.0195 87.80596,8.17859 127.28971,17.95844 43.90836,10.87581 72.90493,21.56906 120.95011,44.6036 l 27.89159,13.37219 3.50159,-4.61271 c 7.40504,-9.7548 19.07056,-31.96122 18.10785,-34.47 -0.55514,-1.4467 -17.51621,-12.4406 -37.69125,-24.43087 C 785.8359,386.69401 688.75233,322.21997 680.97236,314.00338 l -5.49685,-5.80535 7.1325,-10.35609 c 15.29218,-22.20356 39.49277,-40.28427 67.44651,-50.39054 13.16087,-4.75813 18.86117,-5.68206 40.04198,-6.49014 23.62971,-0.90152 25.56816,-0.68515 44.87209,5.00848 11.09653,3.27289 20.52197,5.60426 20.94539,5.18082 0.42345,-0.42345 -0.85439,-4.89684 -2.83961,-9.94091 -1.98523,-5.04326 -10.56726,-28.62101 -19.07116,-52.39418 C 809.67771,120.81213 804.1348,110.77264 781.77916,94.22572 749.22943,70.133443 702.73104,53.772007 632.9091,41.842667 604.34229,36.961921 516.85569,37.018486 487.26316,41.936837 437.86003,50.147752 376.32468,69.865563 347.67159,86.666246 c -24.1658,14.169574 -41.0469,37.351174 -54.54251,74.899334 -12.42888,34.58026 -30.59756,92.87124 -30.06521,96.4589 0.78823,5.31208 5.29108,6.25227 6.56748,1.37129 2.41517,-9.23564 32.78079,-19.48748 57.89109,-19.54482 33.57562,-0.0767 69.10818,14.48429 93.01976,38.11876 7.90566,7.81406 16.77216,17.83437 19.70329,22.26735 l 5.32932,8.05995 -6.40571,6.71227 c -8.46286,8.86786 -57.37843,41.25182 -125.74143,83.24556 -30.49168,18.73032 -56.18179,35.67105 -57.08913,37.6461 -1.20268,2.61789 -0.24828,6.03848 3.52192,12.62288 11.87019,20.73042 16.44195,26.88528 19.97007,26.88528 1.9784,0 18.59255,-7.12676 36.92033,-15.83726 z"
   id="path882" /></svg>
