<?xml version="1.0" encoding="UTF-8" standalone="no"?>
<svg
   xmlns:dc="http://purl.org/dc/elements/1.1/"
   xmlns:cc="http://creativecommons.org/ns#"
   xmlns:rdf="http://www.w3.org/1999/02/22-rdf-syntax-ns#"
   xmlns:svg="http://www.w3.org/2000/svg"
   xmlns="http://www.w3.org/2000/svg"
   version="1.1"
   id="Layer_1"
   x="0px"
   y="0px"
   width="500px"
   height="500px"
   viewBox="0 0 500 500"
   enable-background="new 0 0 500 500"
   xml:space="preserve"><metadata
   id="metadata893"><rdf:RDF><cc:Work
       rdf:about=""><dc:format>image/svg+xml</dc:format><dc:type
         rdf:resource="http://purl.org/dc/dcmitype/StillImage" /><dc:title></dc:title></cc:Work></rdf:RDF></metadata><defs
   id="defs891" />
<path
   fill="#2AB89A"
   d="M465.219,245.949c0,120.987-99.403,219.067-222.03,219.067c-122.629,0-222.037-98.08-222.037-219.067  c0-120.989,99.408-219.069,222.037-219.069C365.815,26.88,465.219,124.959,465.219,245.949z"
   id="path882"
   style="fill:#0000aa" />
<path
   fill="none"
   stroke="#4875BA"
   stroke-miterlimit="10"
   d="M367.438,172.004"
   id="path884" />
<path
   fill="#FFFFFF"
   d="M324.083,236.363c3.563-2.992,7.213-5.784,10.442-9.074c14.182-14.453,21.964-33.169,19.663-52.203  c-1.733-14.344-9.599-32.008-21.451-42.49c-6.073-5.371-17.025-8.875-24.808-13.082l-1.041-44.586h-44.138v38.664  c-7.038-0.063-10.209-0.048-33.751-0.048V74.928h-44.138v38.615l-57.667-0.615v59.364h54.96v143.646h-54.96v62.296l57.667,0.117  v38.616H229v-38.616c34,0,32.064,0.001,33.751-0.002v38.618h44.138c0,0,0-40.176,0.002-40.178  c9.659-6.567,22.112-12.35,30.435-20.483c11.852-11.586,19.717-31.108,21.451-46.964c2.301-21.037-5.482-41.725-19.664-57.697  c-3.228-3.638-6.879-6.724-10.441-10.031c-3.83-3.556-5.258-3.778-4.34-5.854L324.083,236.363z M231.047,173.588  c49.34,0,63.076-2.642,63.076,22.831c0,27.445-18.835,22.832-63.076,22.832V173.588z M233.341,316.511v-48.899  c49.052,0,69.597-4.565,69.597,24.268C302.938,321.578,281.207,316.511,233.341,316.511z"
   id="path886" />
<path
   style="fill:#ffcc00;fill-opacity:0.553051;stroke-width:0.586854"
   d="m 184.98903,397.15209 v -19.3662 H 156.23316 127.4773 v -30.80986 -30.80986 h 27.58216 27.58215 v -72.1831 -72.1831 H 155.05946 127.4773 v -29.33746 -29.33746 l 28.75586,0.384 28.75587,0.38401 V 94.431023 74.968988 h 22.00704 22.00705 v 19.366197 19.366195 h 17.01878 17.01878 V 94.335185 74.968988 h 21.62574 21.62573 l 0.38131,5.371845 c 0.20972,2.954515 0.3813,8.722197 0.3813,12.817071 0,4.094874 0.17227,11.813216 0.38282,17.151866 l 0.38282,9.70665 8.78199,3.98785 c 10.8783,4.93979 14.34981,7.17214 19.22884,12.36511 8.7223,9.28355 15.51648,23.24087 17.5976,36.15088 1.13402,7.03474 0.47888,18.30357 -1.43886,24.74943 -3.98113,13.38125 -11.56554,24.78209 -22.91566,34.4467 -2.75042,2.34198 -5.00077,4.6157 -5.00077,5.05272 0,0.43702 4.17497,4.9458 9.27772,10.01953 12.15548,12.08635 17.71659,20.58308 21.79962,33.30727 2.95652,9.21356 3.72466,14.75835 3.371,24.33317 -0.50039,13.54706 -4.36117,26.44941 -11.51067,38.4675 -7.28602,12.24759 -11.96659,16.35959 -33.20762,29.17376 l -7.04226,4.24841 -0.15442,20.09977 -0.15442,20.09976 h -21.7059 -21.70591 v -19.36619 -19.3662 H 246.0219 229.00312 v 19.3662 19.36619 h -22.00705 -22.00704 z m 99.27165,-81.26612 c 9.22012,-1.59944 15.06129,-5.72306 17.334,-12.2371 0.84428,-2.41986 1.05867,-4.87643 1.05867,-12.13059 0,-8.24899 -0.12568,-9.36954 -1.34938,-12.03051 -1.57868,-3.43288 -4.82899,-6.98896 -7.78206,-8.51416 -6.25953,-3.2329 -18.72873,-4.31002 -43.24532,-3.73563 l -17.16549,0.40216 v 24.54521 24.54522 l 13.05751,0.20851 c 17.93025,0.28631 32.72937,-0.12283 38.09207,-1.05311 z M 271.95653,219.326 c 11.80122,-1.1191 17.51832,-4.09843 20.4918,-10.6788 1.29065,-2.85622 1.4022,-3.85012 1.4022,-12.49277 0,-9.11608 -0.0483,-9.48805 -1.65812,-12.76635 -2.68083,-5.45938 -7.43972,-8.04439 -16.90236,-9.18128 -7.80017,-0.93716 -23.58146,-1.34498 -34.48933,-0.89127 l -10.03704,0.41749 v 22.77983 22.77983 l 5.72183,0.19186 c 13.77559,0.4619 29.67785,0.39083 35.47102,-0.15854 z"
   id="path959" /></svg>
