<?xml version="1.0" encoding="UTF-8" standalone="no"?>
<svg
   xmlns:dc="http://purl.org/dc/elements/1.1/"
   xmlns:cc="http://creativecommons.org/ns#"
   xmlns:rdf="http://www.w3.org/1999/02/22-rdf-syntax-ns#"
   xmlns:svg="http://www.w3.org/2000/svg"
   xmlns="http://www.w3.org/2000/svg"
   version="1.1"
   viewBox="0 0 99.807175 99.807213"
   id="svg58"
   width="99.807175"
   height="99.807213">
  <metadata
     id="metadata64">
    <rdf:RDF>
      <cc:Work
         rdf:about="">
        <dc:format>image/svg+xml</dc:format>
        <dc:type
           rdf:resource="http://purl.org/dc/dcmitype/StillImage" />
        <dc:title></dc:title>
      </cc:Work>
    </rdf:RDF>
  </metadata>
  <defs
     id="defs62" />
  <path
     style="fill:#a9d5fc;fill-opacity:1;stroke-width:0.117371"
     d="m 45.54058,99.72658 c -0.64554,-0.0611 -1.804459,-0.20227 -2.575376,-0.31368 -1.39959,-0.20226 -1.401791,-0.20309 -1.484969,-0.55468 -0.04582,-0.19366 -0.360893,-3.33626 -0.700173,-6.98356 -0.339279,-3.64731 -0.665322,-6.69446 -0.724541,-6.77147 -0.05922,-0.077 -0.539447,-0.28173 -1.067175,-0.45494 -1.536277,-0.50425 -3.535635,-1.31459 -5.23023,-2.11981 -0.865434,-0.41122 -1.649462,-0.74768 -1.742285,-0.74768 -0.09282,0 -2.5179,1.94102 -5.389061,4.31338 -2.871162,2.37236 -5.314974,4.38072 -5.430695,4.46302 -0.184018,0.13088 -0.348677,0.0443 -1.313229,-0.69038 -3.513505,-2.67624 -7.021662,-6.16315 -9.648337,-9.58991 -0.4971669,-0.64861 -0.934053,-1.25776 -0.9708579,-1.35367 -0.043402,-0.1131 1.5051139,-2.078984 4.4064379,-5.594086 3.705702,-4.489648 4.459835,-5.463168 4.394564,-5.672996 -0.04334,-0.139311 -0.382316,-0.860687 -0.753289,-1.603058 -0.739526,-1.479899 -1.859197,-4.233048 -2.171865,-5.340376 -0.109365,-0.387324 -0.261871,-0.770945 -0.3389,-0.852492 -0.09439,-0.09993 -2.422019,-0.366178 -7.1394202,-0.816657 L 0.66181189,58.375144 0.54133744,57.66598 c -0.066261,-0.39004 -0.2126472,-1.47501 -0.3253026,-2.411042 -0.2862824,-2.378667 -0.2884672,-8.169407 -0.00398,-10.561686 0.2764846,-2.325026 0.43404105,-3.169441 0.59292625,-3.177757 0.074066,-0.0039 3.25082641,-0.307726 7.05946821,-0.675221 l 6.9248027,-0.668172 0.596483,-1.70154 c 0.742137,-2.117028 1.27624,-3.397688 2.112121,-5.064387 0.358437,-0.714702 0.627652,-1.359594 0.598255,-1.433094 -0.0294,-0.0735 -2.06131,-2.557596 -4.515364,-5.520214 L 9.1188285,21.06629 9.6834521,20.290895 c 1.9013659,-2.611135 5.4423579,-6.371942 7.9815409,-8.477014 1.973392,-1.636011 3.279734,-2.5967249 3.439459,-2.5294569 0.07719,0.03251 1.143874,0.8884299 2.3704,1.9020429 1.226526,1.013614 3.646717,3.005775 5.378203,4.427025 l 3.148155,2.584091 1.605366,-0.770553 c 2.065231,-0.991283 2.775862,-1.285314 4.75383,-1.966954 0.892455,-0.307554 1.64605,-0.582595 1.674658,-0.611203 0.08473,-0.08473 0.256346,-1.687243 0.86186,-8.0479039 0.315426,-3.313415 0.597609,-6.04849798 0.627073,-6.07796199 0.07945,-0.07945 1.236212,-0.253753 3.020716,-0.455158 2.377557,-0.26834100183 5.633409,-0.34386 8.038121,-0.186445 1.918536,0.12559 5.561658,0.543486 5.668382,0.65021 0.02395,0.02395 0.331787,3.12456399 0.684074,6.89024499 0.352288,3.7656819 0.687187,6.9591619 0.744222,7.0966229 0.07458,0.179735 0.345206,0.323224 0.963604,0.510904 1.291075,0.391833 3.839456,1.415304 5.54371,2.226445 0.833137,0.39653 1.573567,0.698411 1.645403,0.670845 0.07184,-0.02757 0.446519,-0.311011 0.832627,-0.629878 0.386108,-0.318866 2.805294,-2.310343 5.375968,-4.425502 l 4.673953,-3.8457449 0.431681,0.287309 c 1.633246,1.0870219 5.284156,4.2979389 7.087074,6.2329679 1.905467,2.045096 4.318785,5.033088 4.318785,5.347205 0,0.06759 -1.386946,1.800153 -3.082103,3.850143 -3.999093,4.83619 -5.658156,6.862676 -5.761815,7.037851 -0.04608,0.07787 0.148999,0.606039 0.433507,1.173709 0.815991,1.628122 1.64271,3.593797 2.252876,5.356618 0.309346,0.893729 0.619758,1.643742 0.689804,1.666695 0.122671,0.0402 13.601192,1.346627 13.878488,1.345196 0.288032,-0.0015 0.727971,3.79254 0.823311,7.100237 0.0877,3.0431 -0.10276,6.110405 -0.558087,8.987396 l -0.122091,0.771432 -2.721781,0.259035 c -9.51804,0.90584 -11.299709,1.097201 -11.424164,1.227019 -0.07387,0.07705 -0.22379,0.456996 -0.333155,0.84432 -0.312668,1.107328 -1.432339,3.860477 -2.171865,5.340376 -0.370973,0.742371 -0.709846,1.463409 -0.753051,1.602307 -0.06496,0.208829 0.696376,1.191505 4.398301,5.677027 3.987275,4.831276 4.463692,5.451846 4.356489,5.674686 -0.176461,0.36681 -1.942657,2.5982 -3.100971,3.91773 -1.235907,1.40792 -4.02953,4.14808 -5.371768,5.26897 -1.830825,1.52891 -3.193404,2.51519 -3.331127,2.41119 -0.07222,-0.0545 -2.08554,-1.70857 -4.474037,-3.67561 -2.388498,-1.96705 -4.804145,-3.95313 -5.368104,-4.41351 l -1.02538,-0.83707 -1.67415,0.79875 c -1.839086,0.87743 -3.813656,1.67783 -5.404853,2.19087 -0.793929,0.25598 -1.04262,0.38736 -1.080928,0.57101 -0.02736,0.13119 -0.33691,3.29379 -0.687879,7.02801 -0.350968,3.73421 -0.683212,6.83333 -0.738321,6.88694 -0.05511,0.0536 -0.971676,0.213 -2.036817,0.3542 -1.567737,0.20782 -2.652028,0.263621 -5.692489,0.292931 -2.065727,0.0199 -4.284037,-0.0138 -4.929577,-0.0749 z m 7.689372,-31.024 c 8.99043,-1.58578 15.726121,-9.628966 15.726121,-18.778789 0,-2.973322 -0.857972,-6.387725 -2.258533,-8.988102 -1.414554,-2.626359 -3.77666,-5.233976 -6.196103,-6.840109 -7.825754,-5.195083 -18.047412,-4.043669 -24.472343,2.756676 -6.966953,7.374037 -6.921676,18.938886 0.1027,26.231841 3.077355,3.195019 7.115001,5.252102 11.345406,5.780208 1.191426,0.148732 4.523753,0.05505 5.752752,-0.161725 z"
     id="path897" />
</svg>
